<?xml version="1.0" encoding="UTF-8"?>
<!DOCTYPE svg PUBLIC "-//W3C//DTD SVG 1.1//EN" "http://www.w3.org/Graphics/SVG/1.1/DTD/svg11.dtd">
<svg version="1.1" xmlns="http://www.w3.org/2000/svg" xmlns:xlink="http://www.w3.org/1999/xlink" x="0" y="0" width="256" height="256" viewBox="0, 0, 256, 256">
  <g id="Layer_1">
    <g>
      <path d="M128,46.25 C81.714,46.25 44.18,83.775 44.18,130.07 C44.18,167.102 68.197,198.522 101.501,209.605 C105.69,210.381 107.228,207.787 107.228,205.573 C107.228,203.575 107.151,196.971 107.114,189.967 C83.796,195.038 78.875,180.078 78.875,180.078 C75.062,170.391 69.568,167.813 69.568,167.813 C61.963,162.611 70.142,162.718 70.142,162.718 C78.559,163.309 82.991,171.357 82.991,171.357 C90.466,184.169 102.599,180.465 107.382,178.323 C108.136,172.907 110.307,169.208 112.704,167.115 C94.086,164.997 74.515,157.808 74.515,125.691 C74.515,116.541 77.79,109.062 83.152,103.192 C82.281,101.081 79.412,92.556 83.965,81.01 C83.965,81.01 91.004,78.759 107.02,89.603 C113.706,87.746 120.877,86.815 128,86.782 C135.123,86.815 142.299,87.746 148.998,89.603 C164.996,78.759 172.025,81.01 172.025,81.01 C176.588,92.556 173.719,101.081 172.848,103.192 C178.223,109.062 181.474,116.541 181.474,125.691 C181.474,157.886 161.865,164.973 143.2,167.048 C146.207,169.649 148.886,174.75 148.886,182.57 C148.886,193.786 148.79,202.812 148.79,205.573 C148.79,207.805 150.297,210.417 154.546,209.595 C187.833,198.499 211.82,167.091 211.82,130.07 C211.82,83.775 174.292,46.25 128,46.25" fill="#161514"/>
      <path d="M75.927,166.596 C75.743,167.014 75.088,167.139 74.491,166.853 C73.882,166.578 73.541,166.01 73.739,165.592 C73.919,165.165 74.574,165.046 75.182,165.331 C75.79,165.605 76.137,166.178 75.927,166.596" fill="#161514"/>
      <path d="M79.323,170.383 C78.923,170.754 78.14,170.582 77.612,169.996 C77.062,169.412 76.961,168.629 77.366,168.254 C77.778,167.883 78.536,168.057 79.084,168.641 C79.634,169.233 79.741,170.007 79.323,170.383" fill="#161514"/>
      <path d="M82.628,175.21 C82.114,175.568 81.273,175.234 80.754,174.488 C80.24,173.742 80.24,172.848 80.766,172.49 C81.286,172.131 82.114,172.455 82.64,173.193 C83.152,173.951 83.152,174.845 82.628,175.21" fill="#161514"/>
      <path d="M87.155,179.874 C86.696,180.381 85.717,180.245 85.001,179.552 C84.268,178.878 84.064,177.919 84.523,177.412 C84.99,176.904 85.974,177.047 86.696,177.733 C87.423,178.407 87.644,179.373 87.155,179.874" fill="#161514"/>
      <path d="M93.401,182.583 C93.197,183.239 92.256,183.536 91.307,183.257 C90.359,182.97 89.738,182.202 89.93,181.539 C90.127,180.878 91.073,180.567 92.03,180.866 C92.976,181.151 93.598,181.915 93.401,182.583" fill="#161514"/>
      <path d="M100.261,183.084 C100.285,183.775 99.48,184.349 98.483,184.361 C97.481,184.383 96.669,183.824 96.658,183.144 C96.658,182.446 97.446,181.879 98.447,181.861 C99.444,181.842 100.261,182.398 100.261,183.084" fill="#161514"/>
      <path d="M106.644,181.998 C106.764,182.671 106.071,183.364 105.081,183.549 C104.108,183.728 103.208,183.31 103.084,182.642 C102.963,181.951 103.667,181.258 104.64,181.079 C105.631,180.907 106.518,181.313 106.644,181.998" fill="#161514"/>
    </g>
  </g>
</svg>
