<?xml version="1.0" encoding="UTF-8"?>
<!DOCTYPE svg PUBLIC "-//W3C//DTD SVG 1.1//EN" "http://www.w3.org/Graphics/SVG/1.1/DTD/svg11.dtd">
<svg version="1.1" xmlns="http://www.w3.org/2000/svg" xmlns:xlink="http://www.w3.org/1999/xlink" x="0" y="0" width="256" height="256" viewBox="0, 0, 256, 256">
  <g id="Layer_1">
    <g>
      <path d="M128,40.5 C78.458,40.5 38.285,80.665 38.285,130.215 C38.285,169.853 63.991,203.482 99.637,215.345 C104.121,216.175 105.767,213.399 105.767,211.029 C105.767,208.891 105.684,201.822 105.645,194.326 C80.686,199.753 75.42,183.741 75.42,183.741 C71.339,173.372 65.459,170.613 65.459,170.613 C57.319,165.045 66.072,165.159 66.072,165.159 C75.081,165.792 79.825,174.406 79.825,174.406 C87.827,188.12 100.813,184.155 105.932,181.863 C106.739,176.066 109.062,172.106 111.628,169.866 C91.701,167.599 70.753,159.905 70.753,125.528 C70.753,115.735 74.258,107.73 79.997,101.447 C79.066,99.188 75.995,90.063 80.868,77.705 C80.868,77.705 88.401,75.295 105.544,86.903 C112.701,84.915 120.376,83.918 128,83.882 C135.624,83.918 143.305,84.915 150.475,86.903 C167.599,75.295 175.122,77.705 175.122,77.705 C180.005,90.063 176.934,99.188 176.003,101.447 C181.755,107.73 185.235,115.735 185.235,125.528 C185.235,159.988 164.247,167.574 144.269,169.795 C147.487,172.579 150.355,178.039 150.355,186.409 C150.355,198.413 150.252,208.074 150.252,211.029 C150.252,213.418 151.865,216.214 156.413,215.334 C192.042,203.458 217.715,169.841 217.715,130.215 C217.715,80.665 177.548,40.5 128,40.5" fill="#161514"/>
      <path d="M72.265,169.311 C72.067,169.758 71.366,169.892 70.727,169.586 C70.075,169.291 69.711,168.684 69.922,168.237 C70.115,167.779 70.816,167.651 71.467,167.957 C72.118,168.25 72.489,168.863 72.265,169.311" fill="#161514"/>
      <path d="M75.899,173.364 C75.471,173.761 74.633,173.577 74.067,172.95 C73.479,172.324 73.371,171.486 73.805,171.085 C74.246,170.689 75.057,170.874 75.644,171.5 C76.232,172.133 76.346,172.962 75.899,173.364" fill="#161514"/>
      <path d="M79.436,178.531 C78.887,178.914 77.986,178.556 77.431,177.758 C76.881,176.959 76.881,176.002 77.444,175.619 C78,175.235 78.887,175.582 79.45,176.372 C79.998,177.183 79.998,178.14 79.436,178.531" fill="#161514"/>
      <path d="M84.282,183.523 C83.79,184.065 82.743,183.92 81.976,183.178 C81.192,182.456 80.974,181.43 81.465,180.887 C81.965,180.344 83.018,180.497 83.79,181.231 C84.569,181.953 84.805,182.987 84.282,183.523" fill="#161514"/>
      <path d="M90.968,186.422 C90.749,187.124 89.742,187.442 88.726,187.144 C87.711,186.836 87.047,186.015 87.252,185.304 C87.463,184.597 88.476,184.264 89.5,184.584 C90.513,184.89 91.179,185.707 90.968,186.422" fill="#161514"/>
      <path d="M98.31,186.959 C98.336,187.698 97.474,188.312 96.407,188.325 C95.335,188.349 94.465,187.75 94.454,187.022 C94.454,186.275 95.297,185.669 96.369,185.65 C97.435,185.629 98.31,186.225 98.31,186.959" fill="#161514"/>
      <path d="M105.142,185.796 C105.27,186.517 104.529,187.258 103.469,187.456 C102.428,187.647 101.464,187.2 101.332,186.486 C101.202,185.746 101.956,185.004 102.997,184.813 C104.058,184.629 105.007,185.062 105.142,185.796" fill="#161514"/>
    </g>
  </g>
</svg>
