<?xml version="1.0" encoding="UTF-8"?>
<!DOCTYPE svg PUBLIC "-//W3C//DTD SVG 1.1//EN" "http://www.w3.org/Graphics/SVG/1.1/DTD/svg11.dtd">
<svg version="1.1" xmlns="http://www.w3.org/2000/svg" xmlns:xlink="http://www.w3.org/1999/xlink" x="0" y="0" width="256" height="256" viewBox="0, 0, 256, 256">
  <g id="Layer_1">
    <g>
      <path d="M128,23 C68.55,23 20.341,71.197 20.341,130.659 C20.341,178.223 51.189,218.578 93.965,232.814 C99.345,233.81 101.321,230.478 101.321,227.635 C101.321,225.069 101.221,216.587 101.174,207.591 C71.224,214.103 64.904,194.889 64.904,194.889 C60.007,182.447 52.95,179.136 52.95,179.136 C43.182,172.454 53.687,172.591 53.687,172.591 C64.497,173.351 70.19,183.687 70.19,183.687 C79.792,200.144 95.375,195.386 101.519,192.635 C102.487,185.679 105.275,180.928 108.354,178.239 C84.441,175.519 59.304,166.286 59.304,125.034 C59.304,113.282 63.51,103.676 70.397,96.137 C69.279,93.425 65.594,82.475 71.441,67.646 C71.441,67.646 80.482,64.755 101.053,78.683 C109.641,76.298 118.851,75.102 128,75.059 C137.149,75.102 146.366,76.298 154.97,78.683 C175.518,64.755 184.546,67.646 184.546,67.646 C190.406,82.475 186.721,93.425 185.603,96.137 C192.506,103.676 196.682,113.282 196.682,125.034 C196.682,166.386 171.496,175.488 147.523,178.154 C151.385,181.495 154.826,188.046 154.826,198.09 C154.826,212.495 154.702,224.089 154.702,227.635 C154.702,230.501 156.639,233.857 162.096,232.801 C204.85,218.55 235.659,178.209 235.659,130.659 C235.659,71.197 187.458,23 128,23" fill="#161514"/>
      <path d="M61.118,177.573 C60.881,178.109 60.039,178.27 59.273,177.903 C58.49,177.55 58.053,176.82 58.306,176.284 C58.538,175.735 59.38,175.581 60.161,175.949 C60.941,176.3 61.387,177.036 61.118,177.573" fill="#161514"/>
      <path d="M65.479,182.437 C64.966,182.913 63.96,182.692 63.281,181.94 C62.575,181.189 62.445,180.184 62.965,179.702 C63.495,179.226 64.468,179.449 65.172,180.2 C65.878,180.959 66.016,181.954 65.479,182.437" fill="#161514"/>
      <path d="M69.724,188.637 C69.064,189.097 67.984,188.667 67.317,187.71 C66.657,186.751 66.657,185.602 67.333,185.142 C68,184.683 69.064,185.098 69.74,186.046 C70.398,187.02 70.398,188.168 69.724,188.637" fill="#161514"/>
      <path d="M75.539,194.628 C74.949,195.278 73.692,195.104 72.772,194.214 C71.83,193.348 71.568,192.116 72.158,191.465 C72.757,190.812 74.021,190.996 74.949,191.877 C75.883,192.743 76.166,193.984 75.539,194.628" fill="#161514"/>
      <path d="M83.561,198.106 C83.299,198.949 82.09,199.331 80.871,198.972 C79.653,198.603 78.856,197.618 79.102,196.765 C79.356,195.917 80.571,195.517 81.8,195.901 C83.016,196.268 83.814,197.248 83.561,198.106" fill="#161514"/>
      <path d="M92.372,198.75 C92.403,199.638 91.369,200.374 90.089,200.39 C88.801,200.419 87.759,199.701 87.744,198.827 C87.744,197.93 88.757,197.203 90.042,197.18 C91.322,197.155 92.372,197.87 92.372,198.75" fill="#161514"/>
      <path d="M100.571,197.356 C100.724,198.22 99.834,199.11 98.563,199.347 C97.314,199.577 96.157,199.04 95.998,198.183 C95.843,197.295 96.747,196.405 97.996,196.175 C99.269,195.954 100.408,196.475 100.571,197.356" fill="#161514"/>
    </g>
  </g>
</svg>
