<?xml version="1.0" encoding="UTF-8"?>
<!DOCTYPE svg PUBLIC "-//W3C//DTD SVG 1.1//EN" "http://www.w3.org/Graphics/SVG/1.1/DTD/svg11.dtd">
<svg version="1.1" xmlns="http://www.w3.org/2000/svg" xmlns:xlink="http://www.w3.org/1999/xlink" x="0" y="0" width="120" height="120" viewBox="0, 0, 120, 120">
  <g id="Layer_1">
    <g>
      <path d="M46.086,84.965 C46.086,91.06 41.146,96 35.051,96 C28.957,96 24.017,91.06 24.017,84.965 C24.017,78.871 28.957,73.93 35.051,73.93 C41.146,73.93 46.086,78.871 46.086,84.965 z" fill="#000000"/>
      <path d="M24.109,24 C63.803,24 95.983,56.18 95.983,95.874 L95.98,96 L82.176,96 L82.179,95.874 C82.179,63.855 56.129,37.805 24.109,37.805 L24.017,37.807 L24.017,24.002 L24.109,24 z" fill="#000000"/>
      <path d="M24.017,46.799 C51.424,47.267 71.932,68.994 72.615,96 L58.81,96 C58.743,76.836 43.101,61.087 24.017,60.604 L24.017,46.799 z" fill="#000000"/>
    </g>
  </g>
</svg>
