<?xml version="1.0" encoding="UTF-8"?>
<!DOCTYPE svg PUBLIC "-//W3C//DTD SVG 1.1//EN" "http://www.w3.org/Graphics/SVG/1.1/DTD/svg11.dtd">
<svg version="1.1" xmlns="http://www.w3.org/2000/svg" xmlns:xlink="http://www.w3.org/1999/xlink" x="0" y="0" width="120" height="120" viewBox="0, 0, 120, 120">
  <g id="Layer_1">
    <g>
      <path d="M43.767,89.126 C43.767,96.236 38.003,102 30.893,102 C23.783,102 18.019,96.236 18.019,89.126 C18.019,82.016 23.783,76.252 30.893,76.252 C38.003,76.252 43.767,82.016 43.767,89.126 z" fill="#000000"/>
      <path d="M18.127,18 C64.437,18 101.981,55.543 101.981,101.854 L101.977,102 L85.872,102 L85.875,101.854 C85.875,64.497 55.484,34.106 18.127,34.105 L18.019,34.108 L18.019,18.003 L18.127,18 z" fill="#000000"/>
      <path d="M18.019,44.599 C49.995,45.145 73.92,70.494 74.717,102 L58.611,102 C58.533,79.642 40.285,61.269 18.019,60.704 L18.019,44.599 z" fill="#000000"/>
    </g>
  </g>
</svg>
